<?xml version="1.0" encoding="utf-8"?>
<?xml-stylesheet type="text/xsl" href="rss1.xsl"?>
<rss version="2.0" xmlns:atom="http://www.w3.org/2005/Atom" xmlns:content="http://purl.org/rss/1.0/modules/content/" xmlns:dc="http://purl.org/dc/elements/1.1/" xmlns:media="http://search.yahoo.com/mrss/">
<channel>
 <title>Getty</title>
 <link>http://www.gettyimg.com/</link>
 <atom:link href="http://www.gettyimg.com/" rel="self" type="application/rss+xml" />

 
                <item>
                <title><![CDATA[【HD Live Performances】HDTV - The 46th Annual Kennedy Center Honors HDTV MPEG2 1080i DD5.1-ilya2129]]></title>
                <link><![CDATA[https://sharemania.us/threads/the-46th-annual-kennedy-center-honors-hdtv-mpeg2-1080i-dd5-1-ilya2129.235372/]]></link>
                <description><![CDATA[<article>
<blockquote class="messageText SelectQuoteContainer ugc baseHtml">
<div style="text-align: center"><img src="https://i116.fastpic.org/big/2021/1223/59/af3dbb497edb493830f3480215d40859.png?r=1" class="bbCodeImage LbImage" alt="[​IMG]" data-url="https://i116.fastpic.org/big/2021/1223/59/af3dbb497edb493830f3480215d40859.png?r=1" style=""><br>
<br>
<a href="https://postimg.cc/VdDr21DT" target="_blank" class="externalLink" rel="nofollow"><img src="https://i.postimg.cc/VdDr21DT/vlcsnap-2024-01-06-23h42m02s834.png" class="bbCodeImage LbImage" alt="[​IMG]" data-url="https://i.postimg.cc/VdDr21DT/vlcsnap-2024-01-06-23h42m02s834.png"></a> <a href="https://postimg.cc/cvv6wgwm" target="_blank" class="externalLink" rel="nofollow"><img src="https://i.postimg.cc/cvv6wgwm/vlcsnap-2024-01-06-23h42m04s507.png" class="bbCodeImage LbImage" alt="[​IMG]" data-url="https://i.postimg.cc/cvv6wgwm/vlcsnap-2024-01-06-23h42m04s507.png"></a> <a href="https://postimg.cc/JG4s7dhS" target="_blank" class="externalLink" rel="nofollow"><img src="https://i.postimg.cc/JG4s7dhS/vlcsnap-2024-01-06-23h42m06s248.png" class="bbCodeImage LbImage" alt="[​IMG]" data-url="https://i.postimg.cc/JG4s7dhS/vlcsnap-2024-01-06-23h42m06s248.png"></a> <a href="https://postimg.cc/vgsmJ0jq" target="_blank" class="externalLink" rel="nofollow"><img src="https://i.postimg.cc/vgsmJ0jq/vlcsnap-2024-01-06-23h42m07s873.png" class="bbCodeImage LbImage" alt="[​IMG]" data-url="https://i.postimg.cc/vgsmJ0jq/vlcsnap-2024-01-06-23h42m07s873.png"></a> <a href="https://postimg.cc/23dWSZ7L" target="_blank" class="externalLink" rel="nofollow"><img src="https://i.postimg.cc/23dWSZ7L/vlcsnap-2024-01-06-23h42m09s856.png" class="bbCodeImage LbImage" alt="[​IMG]" data-url="https://i.postimg.cc/23dWSZ7L/vlcsnap-2024-01-06-23h42m09s856.png"></a> <a href="https://postimg.cc/tYSYstZJ" target="_blank" class="externalLink" rel="nofollow"><img src="https://i.postimg.cc/tYSYstZJ/vlcsnap-2024-01-06-23h42m14s065.png" class="bbCodeImage LbImage" alt="[​IMG]" data-url="https://i.postimg.cc/tYSYstZJ/vlcsnap-2024-01-06-23h42m14s065.png"></a> <a href="https://postimg.cc/v19B2JPx" target="_blank" class="externalLink" rel="nofollow"><img src="https://i.postimg.cc/v19B2JPx/vlcsnap-2024-01-06-23h42m15s618.png" class="bbCodeImage LbImage" alt="[​IMG]" data-url="https://i.postimg.cc/v19B2JPx/vlcsnap-2024-01-06-23h42m15s618.png"></a> <br>
<br>
Paying homage to Gibb were Michael Bublé and Little Big Town, who respectively performed the Bee Gees classics “How Can You Mend a Broken Heart” and “Lonely Days, Lonely Nights.”<br>
Warwick was honored by Gladys Knight, Chloe Bailey, and Cynthia Erivo, who sang Dionne’s respective hits “Say a Little Prayer,” “Walk On By” and “Alfie.”<br>
Queen Latifah’s salute included a spoken-word tribute from fellow hip-hop great Missy Elliott and a performance of “Just Another Day” by rapper Rapsody.<br>
The evening’s other presenters and performances included Jay Leno, Lin-Manuel Miranda, Robert DeNiro, Meg Ryan, Whoopi Goldberg, Sigourney Weaver, Dove Cameron, and Tituss Burgess.<br>
​</div><br>
<div class="bbCodeBlock bbCodeCode">
<div class="type">Code:</div>
<pre>General
Unique ID                                : 158390903006338084617903135477014814538 (0x7728FA71FD59EDF540EB9669AA095F4A)
Complete name                            : F:\The 46th Annual Kennedy Center Honors HDTV MPEG2 1080i DD5.1-ilya2129.mkv
Format                                   : Matroska
Format version                           : Version 4
File size                                : 8.27 GiB
Duration                                 : 1 h 54 min
Overall bit rate mode                    : Variable
Overall bit rate                         : 10.3 Mb/s
Frame rate                               : 29.970 FPS
Encoded date                             : 2024-01-06 14:28:17 UTC
Writing application                      : mkvmerge v72.0.0 ('Minuano (Six-eight)') 64-bit
Writing library                          : libebml v1.4.4 + libmatroska v1.7.1

Video
ID                                       : 1
Format                                   : MPEG Video
Format version                           : Version 2
Format profile                           : Main@High
Format settings                          : CustomMatrix / BVOP
Format settings, BVOP                    : Yes
Format settings, Matrix                  : Custom
Format settings, GOP                     : Variable
Format settings, picture structure       : Frame
Codec ID                                 : V_MPEG2
Codec ID/Info                            : MPEG 1 or 2 Video
Duration                                 : 1 h 54 min
Bit rate mode                            : Variable
Bit rate                                 : 9 912 kb/s
Maximum bit rate                         : 12.7 Mb/s
Width                                    : 1 920 pixels
Height                                   : 1 080 pixels
Display aspect ratio                     : 16:9
Active Format Description                : Full frame 16:9 image
Frame rate mode                          : Constant
Frame rate                               : 29.970 (30000/1001) FPS
Color space                              : YUV
Chroma subsampling                       : 4:2:0
Bit depth                                : 8 bits
Scan type                                : Interlaced
Scan order                               : Top Field First
Compression mode                         : Lossy
Bits/(Pixel*Frame)                       : 0.159
Time code of first frame                 : 05:35:23;06
Time code source                         : Group of pictures header
GOP, Open/Closed                         : Open
GOP, Open/Closed of first frame          : Closed
Stream size                              : 7.96 GiB (96%)
Default                                  : Yes
Forced                                   : No

Audio
ID                                       : 2
Format                                   : AC-3
Format/Info                              : Audio Coding 3
Commercial name                          : Dolby Digital
Codec ID                                 : A_AC3
Duration                                 : 1 h 54 min
Bit rate mode                            : Constant
Bit rate                                 : 384 kb/s
Channel(s)                               : 6 channels
Channel layout                           : L R C LFE Ls Rs
Sampling rate                            : 48.0 kHz
Frame rate                               : 31.250 FPS (1536 SPF)
Compression mode                         : Lossy
Delay relative to video                  : 13 ms
Stream size                              : 316 MiB (4%)
Language                                 : English
Service kind                             : Complete Main
Default                                  : Yes
Forced                                   : No

</pre>
</div><div style="text-align: center">
<div class="bbCodeBlock bbCodeVfcHH HiddenContent">
<div class="attribution type">Hidden Content:</div>
<blockquote>You must reply before you can see the hidden data contained here.</blockquote>
</div></div>
<div class="messageTextEndMarker">&nbsp;</div>
</blockquote>
</article>]]></description>
                <author><![CDATA[ilya2129]]></author>
                </item>

                </channel></rss>